<?xml version="1.0" standalone="no"?><!DOCTYPE svg PUBLIC "-//W3C//DTD SVG 1.1//EN" "http://www.w3.org/Graphics/SVG/1.1/DTD/svg11.dtd"><svg t="1723540194507" class="icon" viewBox="0 0 1239 1024" version="1.1" xmlns="http://www.w3.org/2000/svg" p-id="13433" xmlns:xlink="http://www.w3.org/1999/xlink" width="241.9921875" height="200"><path d="M1061.816 649.784h-174.42L785.559 454.08a31.306 31.306 0 0 0-57.493 5.604l-84.92 299.157-67.03-708.828A55.445 55.445 0 0 0 525.035 0.44a56.254 56.254 0 0 0-59.056 40.412L297.11 649.514H46.77A46.34 46.34 0 0 0 0 695.314c0 25.272 20.96 45.801 46.77 45.801h323.513l130.828-471.798 66.653 704.787c2.478 26.457 24.031 47.417 51.08 49.627 27.104 2.263 51.998-14.657 59.272-40.305l97.528-343.772 52.697 101.245h233.475c17.188 28.45 48.44 45.855 82.17 45.8 52.59 0 95.32-41.004 95.32-91.6 0-50.434-42.73-91.224-95.32-91.224a95.373 95.373 0 0 0-82.17 45.8z" fill="#2c2c2c" p-id="13434"></path></svg>